HIERARCHY
ROOT Pelvis
{
	OFFSET 0.000000 0.000000 0.000000
	CHANNELS 6 Xposition Yposition Zposition Zrotation Yrotation Xrotation 
	JOINT Left_hip
	{
		OFFSET 0.069463 -0.088608 -0.009542
		CHANNELS 3 Zrotation Yrotation Xrotation
		JOINT Left_knee
		{
			OFFSET 0.030639 -0.359740 -0.005288
			CHANNELS 3 Zrotation Yrotation Xrotation
			JOINT Left_ankle
			{
				OFFSET -0.011068 -0.376034 -0.042462
				CHANNELS 3 Zrotation Yrotation Xrotation
				JOINT Left_foot
				{
					OFFSET 0.023192 -0.053321 0.111332
					CHANNELS 3 Zrotation Yrotation Xrotation
					End Site
					{
						OFFSET 0.000000 0.000000 0.000000
					}
				}
			}
		}
	}
	JOINT Right_hip
	{
		OFFSET -0.067438 -0.088025 -0.006263
		CHANNELS 3 Zrotation Yrotation Xrotation
		JOINT Right_knee
		{
			OFFSET -0.035962 -0.366229 -0.008063
			CHANNELS 3 Zrotation Yrotation Xrotation
			JOINT Right_ankle
			{
				OFFSET 0.013608 -0.375719 -0.040481
				CHANNELS 3 Zrotation Yrotation Xrotation
				JOINT Right_foot
				{
					OFFSET -0.021034 -0.045527 0.114617
					CHANNELS 3 Zrotation Yrotation Xrotation
					End Site
					{
						OFFSET 0.000000 0.000000 0.000000
					}
				}
			}
		}
	}
	JOINT Spine1
	{
		OFFSET -0.002610 0.101823 -0.019986
		CHANNELS 3 Zrotation Yrotation Xrotation
		JOINT Spine2
		{
			OFFSET 0.004114 0.128714 -0.000938
			CHANNELS 3 Zrotation Yrotation Xrotation
			JOINT Spine3
			{
				OFFSET 0.002191 0.048470 0.027684
				CHANNELS 3 Zrotation Yrotation Xrotation
				JOINT Neck
				{
					OFFSET -0.002856 0.198873 -0.044022
					CHANNELS 3 Zrotation Yrotation Xrotation
					JOINT Head
					{
						OFFSET 0.002981 0.062960 0.049860
						CHANNELS 3 Zrotation Yrotation Xrotation
						End Site
						{
							OFFSET 0.000000 0.000000 0.000000
						}
					}
				}
				JOINT Left_collar
				{
					OFFSET 0.073708 0.112550 -0.033440
					CHANNELS 3 Zrotation Yrotation Xrotation
					JOINT Left_shoulder
					{
						OFFSET 0.083291 0.030786 -0.008013
						CHANNELS 3 Zrotation Yrotation Xrotation
						JOINT Left_elbow
						{
							OFFSET 0.245601 -0.011792 -0.027873
							CHANNELS 3 Zrotation Yrotation Xrotation
							JOINT Left_wrist
							{
								OFFSET 0.232258 0.008622 -0.000487
								CHANNELS 3 Zrotation Yrotation Xrotation
								JOINT Left_palm
								{
									OFFSET 0.077300 -0.009457 -0.012851
									CHANNELS 3 Zrotation Yrotation Xrotation
									End Site
									{
										OFFSET 0.000000 0.000000 0.000000
									}
								}
							}
						}
					}
				}
				JOINT Right_collar
				{
					OFFSET -0.075339 0.110574 -0.037874
					CHANNELS 3 Zrotation Yrotation Xrotation
					JOINT Right_shoulder
					{
						OFFSET -0.086522 0.031207 -0.009986
						CHANNELS 3 Zrotation Yrotation Xrotation
						JOINT Right_elbow
						{
							OFFSET -0.237313 -0.011478 -0.019859
							CHANNELS 3 Zrotation Yrotation Xrotation
							JOINT Right_wrist
							{
								OFFSET -0.237599 0.007976 -0.003742
								CHANNELS 3 Zrotation Yrotation Xrotation
								JOINT Right_palm
								{
									OFFSET -0.076920 -0.006943 -0.009920
									CHANNELS 3 Zrotation Yrotation Xrotation
									End Site
									{
										OFFSET 0.000000 0.000000 0.000000
									}
								}
							}
						}
					}
				}
			}
		}
	}
}
MOTION
Frames: 9
Frame Time: 0.100000
-0.301918 0.001283 -0.113567 175.197074 -25.181451 -12.037674 13.518470 8.768005 10.725006 2.320669 -7.987493 -3.037139 -9.346856 6.948312 -7.422966 8.638996 -0.153615 3.087297 -3.217321 -6.005347 -0.825119 -1.341675 -14.360913 17.672024 4.596193 0.898058 -0.791225 10.442494 -25.846532 0.140790 -4.963898 2.802175 12.583969 6.981579 -6.432568 -2.642850 5.876039 -3.230053 -7.916088 13.515579 -22.633594 9.356985 16.033668 -15.920496 -7.900836 -24.257640 0.898156 4.813604 -54.388218 2.715005 5.056067 8.469296 -20.434064 0.626101 -12.027552 -0.155352 3.145839 -14.912970 -4.682158 -27.385332 14.284115 -1.967351 -6.836218 41.934150 5.407701 -0.966652 -120.024555 38.810490 -105.611111 6.711398 10.936403 -48.131040 8.333404 6.588934 -1.562135 
-0.260920 0.006792 -0.120398 176.876149 -30.211463 -13.493823 16.000051 9.784713 13.898772 2.090969 -5.479777 -3.455018 -9.444924 7.369757 -7.263487 9.340310 1.079779 1.979083 -4.956265 -7.893228 7.164104 -1.766634 -13.390805 13.135708 4.447283 -0.662908 0.351171 10.606672 -25.037873 -1.801200 -6.172038 3.365676 9.461072 6.613672 -7.399148 -1.117988 5.273016 -3.976589 -6.776928 10.848556 -19.584520 13.717738 14.028914 -13.318763 -4.293351 -23.179347 3.078294 4.822819 -54.075500 -1.051378 2.848559 10.920045 -23.534714 -1.898445 -10.892761 0.193917 0.201447 -14.969671 -4.782776 -24.183745 15.709546 -7.339842 -6.175308 48.866256 0.641823 1.361403 -126.667266 36.765897 -108.482891 7.214027 9.993882 -46.934348 9.520590 7.454059 -1.709365 
-0.207378 0.020227 -0.137148 -179.838160 -37.662105 -15.704985 18.160401 11.022860 17.330345 2.260963 -1.942071 -2.861346 -10.184939 8.907814 -7.387407 10.173414 1.266057 1.319413 -6.271920 -8.398314 12.853872 -2.080194 -11.620819 8.639495 4.544374 -1.355412 1.680985 11.177343 -24.614726 -2.600796 -6.470961 3.380702 6.593711 5.752512 -7.516452 -0.408699 4.245502 -4.259214 -6.085823 6.750057 -16.024939 17.078060 8.883826 -10.949517 0.792575 -22.976435 4.501738 4.691446 -52.808949 -2.524146 1.149950 10.792763 -22.330754 -1.714317 -9.736375 -0.472782 2.046611 -15.104010 -4.707591 -22.975148 17.235620 -9.167006 -6.433584 50.475675 1.476144 3.074623 -128.067381 36.880774 -108.664006 6.140328 9.501533 -43.745699 10.446506 7.727266 -2.085134 
-0.142500 0.043739 -0.177965 -176.011520 -45.640034 -19.382039 20.827482 11.735926 20.277183 4.051186 1.827253 0.300128 -13.242130 11.774894 -6.839308 12.002586 1.053449 0.720524 -3.173298 -6.507332 15.184567 -1.949471 -8.290187 6.682335 -0.599505 -1.079850 -7.113744 15.419358 -25.035152 -0.977069 -5.549734 2.475553 6.513815 4.688486 -6.870067 1.179023 3.318764 -3.964497 -6.548316 3.537888 -11.619643 17.397025 3.077260 -9.077314 3.786149 -25.755125 5.071586 4.186882 -49.501989 -1.647103 -0.847096 14.786344 -24.414529 -7.268631 -10.279699 -1.392435 0.990990 -13.456973 -3.654558 -20.237461 20.740261 -6.972414 -6.238252 48.065683 5.668032 4.548067 -130.501152 36.918853 -110.170512 5.141488 9.296820 -40.932503 9.736900 7.160247 -0.865858 
-0.093268 0.065709 -0.236323 -174.340290 -50.481060 -21.694176 22.183190 9.478568 14.613437 9.192563 3.457930 14.317464 -14.853954 16.496890 -3.455198 13.481759 1.563864 -1.704480 1.432841 -5.120111 14.339335 -1.122466 -7.116378 10.632685 -7.626635 -0.944015 -13.446123 21.534938 -27.535496 0.404255 -4.214718 2.034037 10.338043 4.031313 -6.134266 1.336198 3.155565 -3.577560 -6.654599 1.840834 -9.712513 15.160009 0.848650 -7.847048 3.877946 -27.520659 5.066480 3.406646 -48.539328 -2.298408 -0.622960 23.034229 -33.129167 -12.859626 -8.900270 -2.243757 -2.386942 -11.542999 -2.484949 -17.137954 22.082947 -4.119290 -5.814787 47.820193 9.390894 5.918706 -132.334957 36.606045 -111.085291 2.452396 8.862199 -41.538859 8.755049 6.232576 0.261071 
-0.074898 0.071627 -0.279289 -170.880276 -51.172536 -25.403155 17.446294 6.096829 2.179549 8.019577 -0.523377 35.041737 -10.586983 13.358905 -4.439649 9.565893 4.631764 -3.686229 2.563340 -5.845546 15.388560 -1.340155 -6.364097 9.666044 -8.816116 -0.199706 -12.778865 21.283660 -27.211500 0.981972 -2.866495 4.017730 16.230148 3.234082 -6.048088 1.624444 2.937679 -2.845488 -5.915193 -0.451331 -10.490998 11.161872 0.636031 -8.568502 1.526525 -26.336890 1.304018 3.364231 -49.990267 -5.215031 1.674028 32.241824 -44.971568 -15.677264 -7.638313 -2.938010 -5.621185 -12.159569 -1.985179 -13.498417 20.127144 0.615667 -5.555353 49.427041 11.057714 6.104476 -135.396900 33.943820 -112.505847 1.432470 7.918144 -40.978142 10.049013 6.882192 0.494636 
-0.073397 0.059729 -0.286364 -165.303663 -52.325153 -29.008460 6.863286 4.505659 -4.343867 3.950192 3.085639 37.251388 -3.726420 10.062229 -8.707204 2.867904 8.738435 -5.659864 1.118871 -5.277773 13.494599 -2.339178 -6.286263 9.805208 -5.543320 1.586865 -8.873164 17.924497 -24.320695 -0.075858 0.009342 4.259458 20.023904 1.300122 -4.561680 1.445213 1.753345 -1.500257 -4.622602 -2.750634 -12.175734 7.944677 -0.590107 -7.851864 -0.580742 -24.286049 0.193154 2.502644 -53.855771 -6.745619 4.288455 49.878882 -57.760160 -26.560110 -6.543149 -4.908878 -7.179204 -11.741633 -0.505809 -9.777158 16.547894 4.048889 -5.338184 52.777605 12.664962 8.351062 -138.785664 34.943669 -114.964144 2.608318 7.981866 -37.600540 9.074139 6.995933 1.425635 
-0.057546 0.053143 -0.288448 -163.590092 -56.358421 -30.413685 1.906069 6.364456 0.439147 0.334924 3.865240 23.163208 -3.567493 4.974036 -6.026182 0.649370 11.241590 -7.670784 0.399253 -5.590674 11.682104 -1.052534 -6.711732 13.658964 -2.772803 5.574507 -6.162351 16.698337 -20.890990 -2.534183 2.352186 3.012338 20.962414 0.797498 -2.088179 3.282280 1.932421 -0.312682 -4.941394 -2.923046 -10.784534 7.668362 -2.941427 -5.796683 -0.617642 -23.711674 2.167730 1.012486 -58.380828 -6.484352 6.147409 81.417816 -65.097065 -53.280910 -5.677650 -6.929033 -8.295802 -9.935408 0.307733 -7.567769 15.774678 6.035251 -4.125273 54.014305 14.804346 10.381328 -141.509887 39.618324 -118.168282 3.668331 8.808346 -32.827806 8.051160 6.364199 2.990641 
-0.041958 0.066899 -0.295333 -165.434042 -58.349048 -28.698198 4.439731 7.628413 7.439227 -0.596980 -2.239804 12.679513 -1.201084 6.756385 -9.297097 0.006675 11.927599 -6.123227 -4.184413 -4.643802 -1.037898 2.170651 -8.936049 39.539772 1.491143 15.097735 -5.947291 21.186671 -24.089373 -7.704093 0.263820 0.352593 22.271681 2.585909 -0.862516 2.965812 3.018926 -1.061416 -5.882959 0.930103 -5.146444 7.362051 -5.152065 -3.433728 -0.678342 -22.986171 4.746563 1.036772 -58.992423 -5.784951 7.682298 108.967568 -63.718697 -78.147369 -3.557806 -8.883036 -9.346503 -7.525512 2.631094 -6.662192 17.604730 4.854182 -4.576819 56.224956 17.465028 14.796073 -145.594992 45.719648 -121.594672 5.945085 10.866803 -30.969274 5.183562 4.772787 5.131731 
